# xmcd
#
# Track frame offsets:
#	150
#	14957
#	28879
#	45816
#	63953
#	79333
#	99696
#	116468
#	136243
#	151050
#	164972
#	181909
#	200046
#	215426
#	235789
#	252561
#
# Disc length: 3629 seconds
#
# Revision: 0
# Processed by: cddbd v1.5.2PL0 Copyright (c) Steve Scherf et al.
# Submitted via: audiograbber 1.83.01
#
DISCID=e30e2b10
DTITLE=Chartbuster Country Vol.2 March 09 - 60400
DYEAR=2009
DGENRE=Karaoke
TTITLE0=Adkins, Trace - Marry For money
TTITLE1=Houser, Randy - Boots On
TTITLE2=Duncan, Whitney - The Bed That You Made
TTITLE3=Anderson, Keith - She Could Have Been Mine
TTITLE4=Fowler, Kevin - Cheaper To Keep Her
TTITLE5=Underwood, Carrie - I Told You So
TTITLE6=Chesnutt, Mark - Things To Do In Wichita
TTITLE7=McComb, Jeremy - Cold
TTITLE8=Adkins, Trace - Marry For Money (w/vocals)
TTITLE9=Houser, Randy - Boots On (w/vocals)
TTITLE10=Duncan, Whitney - Bed That You Made, The (w/vocals)
TTITLE11=Anderson, Keith - She Could've Been Mine (w/vocals)
TTITLE12=Fowler, Kevin - Cheaper To Keep Her (w/vocals)
TTITLE13=Underwood, Carrie - I Told You So (w/vocals)
TTITLE14=Chesnutt, Mark - Things To Do In Wichita (w/vocals)
TTITLE15=McComb, Jeremy - Cold (w/vocals)
EXTD=
EXTT0=
EXTT1=
EXTT2=
EXTT3=
EXTT4=
EXTT5=
EXTT6=
EXTT7=
EXTT8=
EXTT9=
EXTT10=
EXTT11=
EXTT12=
EXTT13=
EXTT14=
EXTT15=
PLAYORDER=
